<svg width="58" height="58" viewBox="0 0 58 58" fill="none" xmlns="http://www.w3.org/2000/svg">
<rect y="10" width="48" height="48" rx="6" fill="#202024"/>
<path fill-rule="evenodd" clip-rule="evenodd" d="M16.4249 27.625H31.5749V28.75L31.5802 27.625C32.0381 27.6272 32.4796 27.796 32.8221 28.1C33.1646 28.404 33.3847 28.8223 33.4413 29.2767L33.443 29.2916L34.774 41.289C34.774 41.2896 34.7741 41.2901 34.7742 41.2906C34.8035 41.5515 34.7777 41.8156 34.6985 42.0659C34.6191 42.3167 34.4878 42.548 34.3132 42.7447C34.1385 42.9415 33.9245 43.0992 33.6848 43.2078C33.4453 43.3164 33.1855 43.3734 32.9224 43.375L32.9155 43.375H15.0773C14.8143 43.3734 14.5545 43.3164 14.3149 43.2078C14.0753 43.0992 13.8612 42.9415 13.6866 42.7447C13.512 42.548 13.3807 42.3167 13.3013 42.0659C13.2221 41.8157 13.1963 41.5516 13.2256 41.2907C13.2256 41.2902 13.2257 41.2896 13.2258 41.289L14.5567 29.2916L14.5585 29.2767C14.615 28.8223 14.8351 28.404 15.1776 28.1C15.5201 27.796 15.9616 27.6272 16.4196 27.625L16.4249 27.625ZM31.2439 29.875H16.7558L15.5078 41.125H32.492L31.2439 29.875Z" fill="#C4C4CC"/>
<path fill-rule="evenodd" clip-rule="evenodd" d="M24 26.125C23.3038 26.125 22.6361 26.4016 22.1438 26.8938C21.6516 27.3861 21.375 28.0538 21.375 28.75V31.75C21.375 32.3713 20.8713 32.875 20.25 32.875C19.6287 32.875 19.125 32.3713 19.125 31.75V28.75C19.125 27.4571 19.6386 26.2171 20.5529 25.3029C21.4671 24.3886 22.7071 23.875 24 23.875C25.2929 23.875 26.5329 24.3886 27.4471 25.3029C28.3614 26.2171 28.875 27.4571 28.875 28.75V31.75C28.875 32.3713 28.3713 32.875 27.75 32.875C27.1287 32.875 26.625 32.3713 26.625 31.75V28.75C26.625 28.0538 26.3484 27.3861 25.8562 26.8938C25.3639 26.4016 24.6962 26.125 24 26.125Z" fill="#C4C4CC"/>
<rect x="29.5" y="1.5" width="27" height="27" rx="13.5" fill="#00875F"/>
<rect x="29.5" y="1.5" width="27" height="27" rx="13.5" stroke="#121214" stroke-width="3"/>
<path d="M44.4629 10.0264V20H42.4941V12.2959L40.1289 13.0479V11.4961L44.251 10.0264H44.4629Z" fill="white"/>
</svg>
